# xmcd
#
# Track frame offsets: 
#        150
#        13212
#        25850
#        39635
#        49558
#        61303
#        72881
#        86081
#        96573
#        108538
#        124003
#        140673
#        157895
#        170528
#        181022
#        192052
#        208213
#        222057
#        232259
#        243886
#        257158
#        270479
#        282832
#        300587
#
# Disc length: 4180 seconds
#
# Revision: 0
# Processed by: cddbd v1.5.2PL0 Copyright (c) Steve Scherf et al.
# Submitted via: ExactAudioCopyFreeDBPlugin 1.0
#
DISCID=59105218
DTITLE=John Lee Hooker - King of the Boogie [Craft Recordings - Concor
DTITLE=d Music] [box set]
DYEAR=2017
DGENRE=Blues
TTITLE0=Unfriendly Woman (aka "Stop Now") (previously unreleased)
TTITLE1=Mambo Chillun
TTITLE2=Time is Marching
TTITLE3=Dimples
TTITLE4=Little Wheel
TTITLE5=I Love You Honey
TTITLE6=Drive Me Away
TTITLE7=Maudie
TTITLE8=When I Lay My Burden Down (previously unreleased)
TTITLE9=Tupelo Blues
TTITLE10=Good Mornin’ Lil’ School Girl
TTITLE11=I Rolled and Turned and Cried the Whole Night Long
TTITLE12=No More Doggin’
TTITLE13=Dusty Road
TTITLE14=No Shoes
TTITLE15=My First Wife Left Me
TTITLE16=Crazy About That Walk (as "Sir John Lee Hooker")
TTITLE17=Want Ad Blues
TTITLE18=Will the Circle Be Unbroken
TTITLE19=I’m Going Upstairs
TTITLE20=I Lost My Job
TTITLE21=Don’t Turn Me from Your Door
TTITLE22=Grinder Man
TTITLE23=Meat Shakes on Her Bone (previously unreleased)
EXTD=
EXTT0=
EXTT1=
EXTT2=
EXTT3=
EXTT4=
EXTT5=
EXTT6=
EXTT7=
EXTT8=
EXTT9=
EXTT10=
EXTT11=
EXTT12=
EXTT13=
EXTT14=
EXTT15=
EXTT16=
EXTT17=
EXTT18=
EXTT19=
EXTT20=
EXTT21=
EXTT22=
EXTT23=
PLAYORDER=
